<svg xmlns="http://www.w3.org/2000/svg" width="1600" height="1120" viewBox="0 0 1600 1120">
<defs>
  <marker id="arr" markerWidth="11" markerHeight="11" refX="10" refY="3.5" orient="auto"><path d="M0,0 L0,7 L10,3.5 z" fill="#3e5059"/></marker>
  <style>
    .t{font-family:Arial,sans-serif;fill:#26343d}.title{font-size:32px;font-weight:700}.sub{font-size:16px;fill:#6d7b83}.lab{font-size:18px}.small{font-size:14px}
    .sys{fill:#fff;stroke:#657781;stroke-width:2.4}.uc{fill:#fff;stroke:#2d737a;stroke-width:2.2}.actor{stroke:#445761;stroke-width:2.2;fill:none}
    .assoc{stroke:#596d77;stroke-width:2.1;fill:none}.inc{stroke:#3e5059;stroke-width:2.1;stroke-dasharray:10 7;fill:none;marker-end:url(#arr)}
    .tag{fill:#fff;stroke:#dae2e6;stroke-width:1}
  </style>
</defs>
<rect width="1600" height="1120" fill="#fff"/>
<text x="800" y="48" text-anchor="middle" class="t title">Diagrama de casos de uso</text>
<text x="800" y="78" text-anchor="middle" class="t sub">Sistema de Pasajeros · Hotel Duerme Bien</text>
<rect x="300" y="115" width="1220" height="900" rx="14" class="sys"/>
<text x="330" y="155" class="t lab" font-weight="700">Sistema de Pasajeros</text>

<circle cx="135" cy="245" r="25" class="actor"/><line x1="135" y1="270" x2="135" y2="350" class="actor"/><line x1="90" y1="305" x2="180" y2="305" class="actor"/><line x1="135" y1="350" x2="98" y2="410" class="actor"/><line x1="135" y1="350" x2="172" y2="410" class="actor"/><text x="135" y="450" text-anchor="middle" class="t lab">Administrador</text>
<circle cx="135" cy="655" r="25" class="actor"/><line x1="135" y1="680" x2="135" y2="760" class="actor"/><line x1="90" y1="715" x2="180" y2="715" class="actor"/><line x1="135" y1="760" x2="98" y2="820" class="actor"/><line x1="135" y1="760" x2="172" y2="820" class="actor"/><text x="135" y="860" text-anchor="middle" class="t lab">Encargado de hotel</text>

<ellipse cx="560" cy="230" rx="175" ry="48" class="uc"/><text x="560" y="224" text-anchor="middle" class="t lab">Gestionar habitaciones</text><text x="560" y="248" text-anchor="middle" class="t small">capacidad y orientación</text>
<ellipse cx="560" cy="355" rx="155" ry="48" class="uc"/><text x="560" y="362" text-anchor="middle" class="t lab">Gestionar usuarios</text>
<ellipse cx="560" cy="480" rx="180" ry="48" class="uc"/><text x="560" y="474" text-anchor="middle" class="t lab">Generar informes</text><text x="560" y="498" text-anchor="middle" class="t small">ocupación y reservas</text>

<ellipse cx="560" cy="625" rx="150" ry="48" class="uc"/><text x="560" y="632" text-anchor="middle" class="t lab">Registrar huésped</text>
<ellipse cx="560" cy="745" rx="150" ry="48" class="uc"/><text x="560" y="752" text-anchor="middle" class="t lab">Gestionar reserva</text>
<ellipse cx="560" cy="865" rx="150" ry="48" class="uc"/><text x="560" y="872" text-anchor="middle" class="t lab">Realizar check-in</text>
<ellipse cx="560" cy="960" rx="150" ry="48" class="uc"/><text x="560" y="967" text-anchor="middle" class="t lab">Realizar check-out</text>

<ellipse cx="1110" cy="745" rx="190" ry="48" class="uc"/><text x="1110" y="752" text-anchor="middle" class="t lab">Consultar disponibilidad</text>
<ellipse cx="1110" cy="865" rx="155" ry="48" class="uc"/><text x="1110" y="872" text-anchor="middle" class="t lab">Asignar habitación</text>
<ellipse cx="1000" cy="960" rx="145" ry="44" class="uc"/><text x="1000" y="954" text-anchor="middle" class="t lab">Calcular costo</text><text x="1000" y="978" text-anchor="middle" class="t small">por pasajero</text>
<ellipse cx="1320" cy="960" rx="150" ry="44" class="uc"/><text x="1320" y="967" text-anchor="middle" class="t lab">Liberar habitación</text>

<line x1="180" y1="305" x2="385" y2="230" class="assoc"/><line x1="180" y1="315" x2="405" y2="355" class="assoc"/><line x1="180" y1="325" x2="380" y2="480" class="assoc"/>
<line x1="180" y1="710" x2="410" y2="625" class="assoc"/><line x1="180" y1="720" x2="410" y2="745" class="assoc"/><line x1="180" y1="730" x2="410" y2="865" class="assoc"/><line x1="180" y1="740" x2="410" y2="960" class="assoc"/>

<path d="M710 745 H920" class="inc"/><rect x="755" y="710" width="130" height="28" rx="6" class="tag"/><text x="820" y="730" text-anchor="middle" class="t small">&lt;&lt;include&gt;&gt;</text>
<path d="M710 865 H955" class="inc"/><rect x="770" y="830" width="130" height="28" rx="6" class="tag"/><text x="835" y="850" text-anchor="middle" class="t small">&lt;&lt;include&gt;&gt;</text>
<path d="M710 950 H855" class="inc"/><rect x="725" y="915" width="130" height="28" rx="6" class="tag"/><text x="790" y="935" text-anchor="middle" class="t small">&lt;&lt;include&gt;&gt;</text>
<path d="M710 975 H1170" class="inc"/><rect x="900" y="980" width="130" height="28" rx="6" class="tag"/><text x="965" y="1000" text-anchor="middle" class="t small">&lt;&lt;include&gt;&gt;</text>
</svg>