<svg xmlns="http://www.w3.org/2000/svg" width="1500" height="1020" viewBox="0 0 1500 1020">
<defs><style>
.t{font-family:Arial,sans-serif;fill:#26343d}.title{font-size:28px;font-weight:700}.h{font-size:17px;font-weight:700}.f{font-size:14px}.small{font-size:12px}.tiny{font-size:11px}
.box{fill:#ffffff;stroke:#d4dde2;stroke-width:1.8}.field{fill:#f9fbfc;stroke:#d4dde2;stroke-width:1.4}
</style></defs>
<rect width="1500" height="1020" fill="#f4f6f7"/>
<text x="750" y="40" text-anchor="middle" class="t title">Mockup · Reservas</text>

<rect x="55" y="70" width="1390" height="900" rx="12" fill="#f4f6f7" stroke="#d4dde2" stroke-width="2"/>

<!-- Encabezado -->
<rect x="80" y="95" width="1340" height="76" rx="9" fill="#16364b" stroke="#d4dde2" stroke-width="1.8"/>
<text x="115" y="128" class="t h" fill="#ffffff">Hotel Duerme Bien</text>
<text x="115" y="151" class="t small" fill="#ffffff">Sistema de Pasajeros</text>
<rect x="1240" y="112" width="145" height="40" rx="7" fill="#ffffff18" stroke="#d4dde2" stroke-width="1.2"/>
<text x="1312" y="137" text-anchor="middle" class="t small" fill="#ffffff">Reiniciar</text>

<!-- Menú -->
<rect x="80" y="192" width="220" height="750" rx="9" fill="#102a3c" stroke="#d4dde2" stroke-width="1.8"/>
<text x="110" y="228" class="t f" fill="#d7e2e8" font-weight="700">Menú</text>
<rect x="100" y="250" width="180" height="37" rx="7" fill="transparent" stroke="none"/>
<text x="120" y="274" class="t f" fill="#d7e2e8" font-weight="400">Inicio</text><rect x="100" y="301" width="180" height="37" rx="7" fill="transparent" stroke="none"/>
<text x="120" y="325" class="t f" fill="#d7e2e8" font-weight="400">Habitaciones</text><rect x="100" y="352" width="180" height="37" rx="7" fill="transparent" stroke="none"/>
<text x="120" y="376" class="t f" fill="#d7e2e8" font-weight="400">Huéspedes</text><rect x="100" y="403" width="180" height="37" rx="7" fill="#ffffff" stroke="#d4dde2"/>
<text x="120" y="427" class="t f" fill="#16364b" font-weight="700">Reservas</text><rect x="100" y="454" width="180" height="37" rx="7" fill="transparent" stroke="none"/>
<text x="120" y="478" class="t f" fill="#d7e2e8" font-weight="400">Check-in</text><rect x="100" y="505" width="180" height="37" rx="7" fill="transparent" stroke="none"/>
<text x="120" y="529" class="t f" fill="#d7e2e8" font-weight="400">Check-out</text><rect x="100" y="556" width="180" height="37" rx="7" fill="transparent" stroke="none"/>
<text x="120" y="580" class="t f" fill="#d7e2e8" font-weight="400">Usuarios</text><rect x="100" y="607" width="180" height="37" rx="7" fill="transparent" stroke="none"/>
<text x="120" y="631" class="t f" fill="#d7e2e8" font-weight="400">Informes</text>

<!-- Título -->
<text x="340" y="228" class="t title" style="font-size:25px">Reservas</text>
<text x="340" y="253" class="t small">Consultar disponibilidad y registrar una reserva.</text>

<!-- Pasos -->
<rect x="340" y="275" width="1050" height="60" rx="10" class="box"/>
<circle cx="390" cy="305" r="16" fill="#2f7b80" stroke="#d4dde2" stroke-width="1.2"/>
<text x="390" y="309" text-anchor="middle" class="t tiny" fill="#ffffff" font-weight="700">1</text>
<text x="418" y="310" class="t f" font-weight="700">Consultar</text>
<line x1="515" y1="305" x2="675" y2="305" stroke="#d4dde2" stroke-width="1.4"/><circle cx="730" cy="305" r="16" fill="#f9fbfc" stroke="#d4dde2" stroke-width="1.2"/>
<text x="730" y="309" text-anchor="middle" class="t tiny" fill="#26343d" font-weight="700">2</text>
<text x="758" y="310" class="t f" font-weight="700">Seleccionar</text>
<line x1="855" y1="305" x2="1015" y2="305" stroke="#d4dde2" stroke-width="1.4"/><circle cx="1070" cy="305" r="16" fill="#f9fbfc" stroke="#d4dde2" stroke-width="1.2"/>
<text x="1070" y="309" text-anchor="middle" class="t tiny" fill="#26343d" font-weight="700">3</text>
<text x="1098" y="310" class="t f" font-weight="700">Guardar</text>


<!-- Buscar -->
<rect x="340" y="355" width="1050" height="138" rx="11" class="box"/>
<text x="370" y="388" class="t h">Buscar disponibilidad</text>
<text x="370" y="420" class="t small">Entrada</text>
<rect x="370" y="430" width="250" height="40" rx="7" class="field"/>
<text x="655" y="420" class="t small">Salida</text>
<rect x="655" y="430" width="250" height="40" rx="7" class="field"/>
<rect x="1110" y="425" width="235" height="45" rx="8" fill="#2f7b80" stroke="#d4dde2" stroke-width="0"/>
<text x="1228" y="453" text-anchor="middle" class="t f" fill="#ffffff" font-weight="700">Consultar disponibilidad</text>

<!-- Habitaciones -->
<rect x="340" y="515" width="620" height="270" rx="11" class="box"/>
<text x="370" y="548" class="t h">Habitaciones disponibles</text>
<rect x="370" y="572" width="560" height="75" rx="8" class="field"/>
<text x="392" y="600" class="t f" font-weight="700">Habitación 201</text>
<text x="392" y="624" class="t small">Capacidad 2 · Norte</text>
<rect x="790" y="590" width="115" height="38" rx="7" fill="#2f7b80" stroke="#d4dde2" stroke-width="0"/>
<text x="848" y="614" text-anchor="middle" class="t small" fill="#ffffff" font-weight="700">Seleccionar</text>

<rect x="370" y="665" width="560" height="75" rx="8" class="field"/>
<text x="392" y="693" class="t f" font-weight="700">Habitación 305</text>
<text x="392" y="717" class="t small">Capacidad 3 · Este</text>
<rect x="790" y="683" width="115" height="38" rx="7" fill="#2f7b80" stroke="#d4dde2" stroke-width="0"/>
<text x="848" y="707" text-anchor="middle" class="t small" fill="#ffffff" font-weight="700">Seleccionar</text>

<!-- Nueva reserva -->
<rect x="985" y="515" width="405" height="270" rx="11" class="box"/>
<text x="1015" y="548" class="t h">Nueva reserva</text>
<text x="1015" y="578" class="t small">Huésped</text>
<rect x="1015" y="586" width="345" height="34" rx="6" class="field"/>
<text x="1015" y="646" class="t small">Habitación</text>
<rect x="1015" y="654" width="345" height="34" rx="6" class="field"/>

<text x="1015" y="713" class="t tiny">Entrada</text>
<rect x="1015" y="720" width="100" height="32" rx="6" class="field"/>
<text x="1128" y="713" class="t tiny">Salida</text>
<rect x="1128" y="720" width="100" height="32" rx="6" class="field"/>
<text x="1242" y="713" class="t tiny">Pasajeros</text>
<rect x="1242" y="720" width="118" height="32" rx="6" class="field"/>

<rect x="1015" y="760" width="345" height="0" fill="none"/>
<rect x="1015" y="752" width="345" height="0" fill="none"/>
<!-- Botón dentro del formulario -->
<rect x="1015" y="748" width="345" height="0" fill="none"/>

<!-- Reservas registradas -->
<rect x="340" y="810" width="1050" height="132" rx="11" class="box"/>
<text x="370" y="843" class="t h">Reservas registradas</text>
<line x1="370" y1="865" x2="1360" y2="865" stroke="#d4dde2" stroke-width="1.2"/>
<text x="385" y="890" class="t tiny" font-weight="700">N.º</text>
<text x="455" y="890" class="t tiny" font-weight="700">Huésped</text>
<text x="690" y="890" class="t tiny" font-weight="700">Habitación</text>
<text x="915" y="890" class="t tiny" font-weight="700">Fechas</text>
<text x="1180" y="890" class="t tiny" font-weight="700">Estado</text>
<text x="865" y="920" text-anchor="middle" class="t small" fill="#6d7a82">Aún no hay reservas registradas.</text>

<!-- Guardar en posición correcta -->
<rect x="1015" y="758" width="345" height="0" fill="none"/>
<rect x="1015" y="748" width="345" height="0" fill="none"/>
<rect x="1015" y="748" width="345" height="0" fill="none"/>
<rect x="1015" y="748" width="345" height="0" fill="none"/>
<rect x="1015" y="748" width="345" height="0" fill="none"/>
<rect x="1015" y="748" width="345" height="0" fill="none"/>

<!-- Botón final del formulario, por encima del borde inferior -->
<rect x="1015" y="748" width="345" height="27" rx="6" fill="#2f7b80" stroke="#d4dde2" stroke-width="0"/>
<text x="1188" y="767" text-anchor="middle" class="t tiny" fill="#ffffff" font-weight="700">Guardar reserva</text>
</svg>